<svg xmlns="http://www.w3.org/2000/svg" viewBox="0 0 64 64"><defs><radialGradient id="lgF"><stop offset="0" stop-color="#FFD98A" stop-opacity=".7"/><stop offset="1" stop-color="#FFD98A" stop-opacity="0"/></radialGradient></defs><rect width="64" height="64" rx="15" fill="#2E3272"/><circle cx="32" cy="33" r="30" fill="url(#lgF)"/><g stroke="#FFD27A" stroke-width="3.2" stroke-linecap="round"><line x1="32.0" y1="9.0" x2="32.0" y2="2.0"/><line x1="44.0" y1="12.2" x2="45.0" y2="10.5"/><line x1="52.8" y1="21.0" x2="58.8" y2="17.5"/><line x1="56.0" y1="33.0" x2="58.0" y2="33.0"/><line x1="52.8" y1="45.0" x2="58.8" y2="48.5"/><line x1="44.0" y1="53.8" x2="45.0" y2="55.5"/><line x1="32.0" y1="57.0" x2="32.0" y2="64.0"/><line x1="20.0" y1="53.8" x2="19.0" y2="55.5"/><line x1="11.2" y1="45.0" x2="5.2" y2="48.5"/><line x1="8.0" y1="33.0" x2="6.0" y2="33.0"/><line x1="11.2" y1="21.0" x2="5.2" y2="17.5"/><line x1="20.0" y1="12.2" x2="19.0" y2="10.5"/></g><g transform="translate(32 33) scale(1.05) translate(-50 -38)"><path d="M43 20a7 7 0 0 1 14 0" stroke="#5A4B4B" stroke-width="3" fill="none" stroke-linecap="round"/>
<path d="M39 28h22l-4-7.5H43Z" fill="#D9544A"/>
<rect x="41" y="28" width="18" height="19" rx="2.6" fill="#FFE9B0"/>
<rect x="44" y="31" width="12" height="13" rx="1.8" fill="#FFF7DA"/>
<rect x="48.8" y="28" width="2.4" height="19" fill="#D9544A" opacity=".5"/>
<rect x="38" y="47" width="24" height="6" rx="2.2" fill="#D9544A"/>
<rect x="38" y="51.2" width="24" height="1.8" rx=".9" fill="#A83C38"/></g></svg>